<?xml version="1.0" encoding="utf-8"?>
<!-- Generator: Adobe Illustrator 28.2.0, SVG Export Plug-In . SVG Version: 6.00 Build 0)  -->
<svg version="1.1" id="图层_1" xmlns="http://www.w3.org/2000/svg" xmlns:xlink="http://www.w3.org/1999/xlink" x="0px" y="0px"
	 viewBox="0 0 808 808" style="enable-background:new 0 0 808 808;" xml:space="preserve">
<style type="text/css">
	.st0{fill:#0168F5;}
	.st1{fill:#FFFFFF;}
</style>
<g>
	<path class="st0" d="M723.3,84.3C647,8.4,537.4-0.1,403.5-0.1c-134.1,0-243.9,8.6-320.1,84.7S-0.5,270.3-0.5,404.3
		s7.7,243.6,84,319.7s185.9,83.9,320,83.9s243.8-7.7,320-83.9s84-185.8,84-319.8C807.5,270.1,799.7,160.4,723.3,84.3z"/>
	<g>
		<rect x="344.1" y="308.1" class="st1" width="110.9" height="248.3"/>
		<g>
			<polygon class="st1" points="176.7,205.5 292.2,205.5 326.7,602.4 212.7,602.4 			"/>
			<polygon class="st1" points="630.3,205.5 514.8,205.5 480.3,602.4 594.3,602.4 			"/>
		</g>
	</g>
</g>
</svg>
